<?xml version="1.0" encoding="UTF-8" standalone="no"?>
<!-- Created with Inkscape (http://www.inkscape.org/) -->

<svg
   version="1.1"
   id="svg2"
   width="350.97333"
   height="101.33333"
   viewBox="0 0 350.97333 101.33333"
   sodipodi:docname="open-edx-logo-color.svg"
   inkscape:version="1.2.2 (b0a8486541, 2022-12-01)"
   xmlns:inkscape="http://www.inkscape.org/namespaces/inkscape"
   xmlns:sodipodi="http://sodipodi.sourceforge.net/DTD/sodipodi-0.dtd"
   xmlns="http://www.w3.org/2000/svg"
   xmlns:svg="http://www.w3.org/2000/svg">
  <defs
     id="defs6" />
  <sodipodi:namedview
     id="namedview4"
     pagecolor="#ffffff"
     bordercolor="#666666"
     borderopacity="1.0"
     inkscape:showpageshadow="2"
     inkscape:pageopacity="0.0"
     inkscape:pagecheckerboard="0"
     inkscape:deskcolor="#d1d1d1"
     showgrid="false"
     inkscape:zoom="4.0572884"
     inkscape:cx="174.37755"
     inkscape:cy="50.772827"
     inkscape:window-width="1920"
     inkscape:window-height="1011"
     inkscape:window-x="0"
     inkscape:window-y="32"
     inkscape:window-maximized="1"
     inkscape:current-layer="g10">
    <inkscape:page
       x="0"
       y="0"
       id="page8"
       width="350.97333"
       height="101.33333" />
  </sodipodi:namedview>
  <g
     id="g10"
     inkscape:groupmode="layer"
     inkscape:label="Page 1"
     transform="matrix(1.3333333,0,0,-1.3333333,0,101.33333)">
    <g
       id="g12"
       transform="scale(0.1)">
      <path
         d="M 91.9883,677.352 0.00390625,238.004 H 1753.1 l 91.99,439.348 H 91.9883"
         style="fill:#d42925;fill-opacity:1;fill-rule:nonzero;stroke:none"
         id="path14" />
      <path
         d="m 2039.26,635.379 26.05,124.652 H 1300.23 L 1174.75,160.727 h 639.69 L 1779.22,0.00390625 h 612.75 L 2527.12,635.379 h -487.86"
         style="fill:#142326;fill-opacity:1;fill-rule:nonzero;stroke:none"
         id="path16" />
      <path
         d="m 1536.96,427.176 c 0.2,0.953 0.34,2.738 0.44,5.355 0.1,2.594 0.15,5.164 0.15,7.657 0,10.226 -1.49,19.89 -4.48,29.058 -2.98,9.152 -7.46,17.199 -13.45,24.141 -5.97,6.949 -13.4,12.426 -22.26,16.492 -8.88,4.031 -19.18,6.062 -30.94,6.062 -11.96,0 -23.14,-2.128 -33.53,-6.355 -10.42,-4.234 -19.87,-10.277 -28.33,-18.078 -8.49,-7.805 -15.8,-17.149 -21.97,-28.031 -6.16,-10.883 -11.08,-22.997 -14.75,-36.278 h 169.12 z M 1435.51,237.238 c -17.35,0 -33.74,2.844 -49.15,8.535 -15.41,5.676 -28.86,14.067 -40.34,25.149 -11.47,11.086 -20.51,24.707 -27.18,40.898 -6.65,16.192 -9.97,34.785 -9.97,55.797 0,28.715 3.99,54.887 11.99,78.488 7.99,23.606 19.13,43.836 33.39,60.715 14.25,16.852 31.35,29.91 51.31,39.16 19.94,9.243 41.78,13.868 65.48,13.868 16,0 31.16,-2.789 45.55,-8.387 14.35,-5.602 26.92,-13.723 37.71,-24.441 10.79,-10.688 19.38,-23.848 25.74,-39.454 6.35,-15.605 9.54,-33.535 9.54,-53.761 0,-3.082 -0.1,-6.703 -0.3,-10.836 -0.19,-4.156 -0.48,-8.391 -0.87,-12.723 -0.4,-4.324 -0.79,-8.582 -1.16,-12.719 -0.39,-4.129 -0.86,-7.656 -1.44,-10.543 h -224.62 c -0.2,-2.714 -0.34,-5.304 -0.44,-7.8 -0.1,-2.52 -0.15,-5.114 -0.15,-7.801 0,-15.996 2.33,-29.621 6.95,-40.903 4.62,-11.277 10.64,-20.468 18.07,-27.617 7.41,-7.136 15.75,-12.273 25,-15.457 9.25,-3.176 18.6,-4.765 28.04,-4.765 20.61,0 37.2,3.574 49.73,10.683 12.52,7.117 22.06,16.758 28.61,28.914 h 52.91 c -3.28,-11.961 -8.68,-23.133 -16.19,-33.535 -7.51,-10.39 -17,-19.422 -28.48,-27.027 -11.46,-7.61 -24.77,-13.598 -39.89,-17.934 -15.12,-4.324 -31.75,-6.504 -49.84,-6.504"
         style="fill:#ffffff;fill-opacity:1;fill-rule:nonzero;stroke:none"
         id="path18" />
      <path
         d="m 1747.32,282.055 c 16.19,0 31.16,3.789 44.96,11.418 13.77,7.605 25.78,18.023 35.98,31.218 10.22,13.204 18.22,28.711 23.99,46.543 5.77,17.832 8.68,37.055 8.68,57.676 0,13.313 -1.82,25.242 -5.49,35.86 -3.68,10.589 -8.88,19.617 -15.61,27.031 -6.75,7.414 -14.94,13.16 -24.58,17.191 -9.64,4.063 -20.53,6.071 -32.68,6.071 -16,0 -30.84,-3.575 -44.52,-10.688 -13.7,-7.145 -25.53,-17.051 -35.56,-29.773 -10.03,-12.719 -17.93,-27.911 -23.7,-45.516 -5.78,-17.613 -8.69,-36.965 -8.69,-57.973 0,-13.109 1.88,-25.148 5.65,-36.129 3.77,-10.988 9,-20.371 15.75,-28.175 6.75,-7.801 14.85,-13.875 24.29,-18.219 9.44,-4.36 19.96,-6.535 31.53,-6.535 z m -15.9,-44.817 c -15.6,0 -30.25,2.942 -43.95,8.828 -13.7,5.872 -25.69,14.321 -35.99,25.293 -10.32,10.989 -18.47,24.289 -24.43,39.895 -5.97,15.605 -8.96,33.047 -8.96,52.324 0,18.688 1.89,36.567 5.64,53.617 3.76,17.051 9.09,32.852 16.04,47.403 6.95,14.554 15.27,27.715 24.99,39.457 9.74,11.765 20.53,21.769 32.4,30.058 11.86,8.293 24.65,14.657 38.44,19.082 13.77,4.426 28.19,6.653 43.23,6.653 11.18,0 21.81,-1.539 31.94,-4.625 10.13,-3.082 19.28,-7.36 27.47,-12.868 8.19,-5.5 15.21,-12.128 21.11,-19.929 5.87,-7.805 10.18,-16.344 12.86,-25.586 h 4.63 l 38.45,181.273 h 50.59 l -92.51,-435.394 h -47.99 l 8.94,42.492 h -4.62 c -11.37,-14.848 -25.63,-26.547 -42.78,-35.129 -17.15,-8.535 -35.66,-12.844 -55.5,-12.844"
         style="fill:#ffffff;fill-opacity:1;fill-rule:nonzero;stroke:none"
         id="path20" />
      <path
         d="M 2419.64,553.465 H 2306.8 L 2183.72,401.078 h -6.07 l -65.08,152.387 H 1998.43 L 2096.28,332.121 1885.06,81.918 h 111.31 l 135.57,160.73 h 9.14 l 73.23,-160.73 h 112.02 l -108.32,239.121 201.63,232.426"
         style="fill:#ffffff;fill-opacity:1;fill-rule:nonzero;stroke:none"
         id="path22" />
      <path
         d="m 285.086,561.758 c -49.063,0 -92.18,-38.125 -103.27,-106.789 -11.222,-66.227 17.844,-101.371 64.079,-101.371 49.058,0 91.91,37.851 103.132,106.519 11.075,66.227 -17.574,101.641 -63.941,101.641 z M 244.539,315.473 c -73.137,0 -118.266,54.882 -103.402,144.644 14.593,87.317 74.875,139.766 145.711,139.766 72.593,0 117.722,-55.02 102.863,-144.914 C 374.977,367.648 314.965,315.473 244.539,315.473"
         style="fill:#ffffff;fill-opacity:1;fill-rule:nonzero;stroke:none"
         id="path24" />
      <path
         d="m 532.152,452.008 c 40.813,0 61.77,23.238 66.766,54.461 5.148,31.504 -7.836,53.797 -49.059,53.797 H 497.41 L 479.43,452.008 Z m -70.699,144.086 h 98.68 c 64.195,0 89.336,-38.531 80.957,-89.625 -8.516,-50.957 -46.625,-89.879 -110.832,-89.879 h -56.77 l -16.215,-97.328 h -41.785 l 45.965,276.832"
         style="fill:#ffffff;fill-opacity:1;fill-rule:nonzero;stroke:none"
         id="path26" />
      <path
         d="m 700.75,596.094 h 174.941 l -7.539,-35.957 H 736.57 l -14.047,-84.348 h 114.36 l -7.305,-35.82 H 716.559 l -14.051,-84.746 h 127.39 l -7.585,-35.961 H 654.785 l 45.965,276.832"
         style="fill:#ffffff;fill-opacity:1;fill-rule:nonzero;stroke:none"
         id="path28" />
      <path
         d="m 1104.16,319.262 h -38.4 l -99.436,203.039 h -2.422 L 922.488,319.262 h -41.777 l 58.445,276.832 h 38.672 l 98.622,-203.289 h 2.58 l 42.21,203.289 h 41.35 l -58.43,-276.832"
         style="fill:#ffffff;fill-opacity:1;fill-rule:nonzero;stroke:none"
         id="path30" />
      <path
         d="m 2600.24,595.402 9.2,-17.136 h -7.2 l -8.94,17.136 z m -21.48,-17.136 v 36.879 h 17.68 c 1.87,0 3.67,-0.446 5.42,-1.325 1.76,-0.882 3.21,-2.179 4.35,-3.898 1.15,-1.715 1.73,-3.824 1.73,-6.32 0,-2.5 -0.6,-4.657 -1.78,-6.473 -1.18,-1.813 -2.68,-3.203 -4.49,-4.172 -1.82,-0.965 -3.69,-1.449 -5.63,-1.449 h -13.69 v 5.047 h 11.99 c 1.7,0 3.23,0.605 4.57,1.824 1.36,1.215 2.03,2.957 2.03,5.223 0,2.328 -0.67,3.996 -2.03,4.996 -1.34,1 -2.82,1.5 -4.41,1.5 h -9.3 v -31.832 z m 13.53,-14.543 c 6,0 11.46,1.465 16.38,4.394 4.91,2.938 8.83,6.856 11.77,11.774 2.93,4.914 4.39,10.367 4.39,16.363 0,6 -1.46,11.457 -4.39,16.367 -2.94,4.91 -6.86,8.84 -11.77,11.766 -4.92,2.937 -10.38,4.402 -16.38,4.402 -5.98,0 -11.44,-1.465 -16.36,-4.402 -4.92,-2.926 -8.83,-6.856 -11.77,-11.766 -2.92,-4.91 -4.4,-10.367 -4.4,-16.367 0,-5.996 1.48,-11.449 4.4,-16.363 2.94,-4.918 6.85,-8.836 11.77,-11.774 4.92,-2.929 10.38,-4.394 16.36,-4.394 z m 0,-7.446 c -5.53,0 -10.7,1.032 -15.53,3.098 -4.84,2.063 -9.09,4.93 -12.75,8.598 -3.66,3.664 -6.53,7.91 -8.59,12.738 -2.06,4.836 -3.1,10.012 -3.1,15.543 0,5.531 1.04,10.715 3.1,15.543 2.06,4.828 4.93,9.074 8.59,12.742 3.66,3.664 7.91,6.527 12.75,8.594 4.83,2.066 10,3.101 15.53,3.101 5.54,0 10.72,-1.035 15.55,-3.101 4.83,-2.067 9.08,-4.93 12.74,-8.594 3.67,-3.668 6.54,-7.914 8.6,-12.742 2.06,-4.828 3.09,-10.012 3.09,-15.543 0,-5.531 -1.03,-10.707 -3.09,-15.543 -2.06,-4.828 -4.93,-9.074 -8.6,-12.738 -3.66,-3.668 -7.91,-6.535 -12.74,-8.598 -4.83,-2.066 -10.01,-3.098 -15.55,-3.098"
         style="fill:#142326;fill-opacity:1;fill-rule:nonzero;stroke:none"
         id="path32" />
    </g>
  </g>
</svg>
