<?xml version="1.0" encoding="utf-8"?>
<!-- Generator: Adobe Illustrator 23.0.4, SVG Export Plug-In . SVG Version: 6.00 Build 0)  -->
<svg version="1.1" id="Calque_1" xmlns="http://www.w3.org/2000/svg" xmlns:xlink="http://www.w3.org/1999/xlink" x="0px" y="0px"
	 viewBox="0 0 447.2 92.3" style="enable-background:new 0 0 447.2 92.3;" xml:space="preserve">
<style type="text/css">
	.st0{fill:#9C9B9B;}
	.st1{fill:#FF0080;}
</style>
<g>
	<path class="st0" d="M0,53.9v-6.2L44.1,9.6l8.7,10.1L16.9,50.8l35.9,31.1L44.1,92L0,53.9z"/>
	<path class="st1" d="M78.8,71.2V34.5h-12V22.4h12V0h14v22.4h16.6v12.1H92.8v36c0,6.5,2.6,9.8,8.6,9.8c3.1,0,5.7-0.4,8.1-1.2v12.1
		c-3.1,0.8-6.1,1.2-10.5,1.2C87,92.3,78.8,86.7,78.8,71.2z"/>
	<path class="st1" d="M186.2,22.4V91h-12.9l-3-7.8c-3.8,4.7-10.3,9.1-20.5,9.1c-16.8,0-24.3-8.8-24.3-26V22.4h14v43.3
		c0,9.5,4.2,14.7,13.3,14.7c12.7,0,19.4-8.2,19.4-24.6V22.4H186.2z"/>
	<path class="st1" d="M212.4,71.2V34.5h-12V22.4h12V0h14v22.4h16.6v12.1h-16.6v36c0,6.5,2.6,9.8,8.6,9.8c3.1,0,5.7-0.4,8.1-1.2v12.1
		c-3.1,0.8-6.1,1.2-10.5,1.2C220.6,92.3,212.4,86.7,212.4,71.2z"/>
	<path class="st1" d="M254.3,56.7c0-20.4,14.4-35.6,34.7-35.6c20.3,0,34.8,15.2,34.8,35.6S309.3,92.3,289,92.3
		C268.7,92.3,254.3,77.1,254.3,56.7z M309.8,56.7c0-13.9-8.2-23.5-20.8-23.5c-12.5,0-20.7,9.6-20.7,23.5s8.2,23.5,20.7,23.5
		C301.6,80.2,309.8,70.6,309.8,56.7z"/>
	<path class="st1" d="M381,22.2v13c-2.9-1.2-5.3-1.6-8.2-1.6c-12.1,0-19.1,9.1-19.1,25.2V91h-14V22.4h12.7l3,7.7
		c3.6-5.5,10.3-9,18.6-9C377,21.1,379.3,21.6,381,22.2z"/>
	<path class="st0" d="M394.4,81.9l35.9-31.1l-35.9-31.1l8.8-10.1l43.9,38.1v6.2L403.3,92L394.4,81.9z"/>
</g>
</svg>
